#!OML:ASF E:\acrobat2\Project_11_07_03\Capture day 1\Session 1\Acrobat.ASF
:FULLY-SPECIFIED
:DEGREES
328
root 11.2736 18.3032 -31.1715 -26.4105 -73.5478 30.048
lowerback -0.243938 -1.17407 3.04548
upperback -3.01792 -1.57692 -1.01328
thorax -3.07891 -0.894558 -2.70954
lowerneck -2.964 4.06069 0.0604374
upperneck 3.77229 5.69421 -7.67842
head 1.95803 2.64075 -2.31373
rclavicle -1.66979e-014 -1.90833e-014
rhumerus -15.0572 -42.6778 -2.90958
rradius 19.1857
rwrist 10.1765
rhand -14.0486 -50.7511
rfingers 7.12502
rthumb 12.0823 -80.3823
lclavicle -1.66979e-014 -1.90833e-014
lhumerus 8.8455 9.12438 0.726175
lradius 22.129
lwrist 11.3058
lhand -12.2862 -5.84568
lfingers 7.12502
lthumb 13.7812 23.6779
rfemur 15.4659 24.8676 13.5486
rtibia -6.39842
rfoot -52.9483 -40.513
rtoes 26.6029
lfemur -6.57157 -4.2905 8.77869
ltibia -1.14307
lfoot -38.3728 27.6042
ltoes 58.9406
329
root 11.2681 18.2906 -31.1151 -22.7744 -74.0589 26.1733
lowerback -0.0939344 -1.08951 4.17225
upperback -2.94579 -1.43393 -0.78841
thorax -3.10582 -0.847617 -3.1122
lowerneck -3.14633 4.42628 0.139697
upperneck 4.07102 6.21291 -7.84649
head 2.12242 2.8822 -2.36344
rclavicle -2.26615e-014 -9.54166e-015
rhumerus -14.7415 -42.6412 -2.7384
rradius 19.1271
rwrist 10.1582
rhand -14.1615 -50.7317
rfingers 7.12502
rthumb 11.9733 -80.3693
lclavicle -2.26615e-014 -9.54166e-015
lhumerus 8.87289 9.50301 0.901406
lradius 22.0316
lwrist 11.0623
lhand -12.9518 -5.92628
lfingers 7.12502
lthumb 13.1397 23.6397
rfemur 15.5501 24.8293 14.9056
rtibia -6.1607
rfoot -52.9741 -40.4924
rtoes 26.0282
lfemur -6.55193 -3.22638 9.93111
ltibia -0.749436
lfoot -36.3335 29.0853
ltoes 58.9165
330
root 11.2564 18.2843 -31.0677 -23.1019 -73.848 26.5693
lowerback -0.139936 -1.04648 3.7032
upperback -2.89936 -1.38971 -0.940703
thorax -3.01837 -0.812936 -3.00879
lowerneck -3.18811 4.7832 0.585888
upperneck 4.2245 6.70687 -8.3727
head 2.24807 3.11491 -2.60155
rclavicle 1.17283e-014 2.3059e-014
rhumerus -14.5059 -42.6883 -2.54078
rradius 19.076
rwrist 10.3148
rhand -14.1995 -50.6074
rfingers 7.12502
rthumb 11.9368 -80.2471
lclavicle 1.17283e-014 2.3059e-014
lhumerus 8.86291 9.44276 0.755572
lradius 22.1244
lwrist 11.178
lhand -13.4974 -5.77841
lfingers 7.12502
lthumb 12.6137 23.8208
rfemur 15.4469 24.2355 14.2799
rtibia -6.09938
rfoot -52.2933 -40.5292
rtoes 25.0656
lfemur -6.66863 -3.06774 9.33325
ltibia -0.486459
lfoot -35.8662 29.388
ltoes 59.0284
331
root 11.245 18.2767 -31.0185 -24.009 -73.574 27.5865
lowerback -0.193957 -0.962647 3.07038
upperback -2.8562 -1.29586 -1.19013
thorax -2.92499 -0.751534 -2.91474
lowerneck -3.03349 5.07831 1.12049
upperneck 4.23278 7.10817 -9.0803
head 2.30464 3.30675 -2.92704
rclavicle -9.88954e-015 1.11319e-014
rhumerus -14.4851 -42.9131 -2.20332
rradius 19.0804
rwrist 10.6379
rhand -14.1106 -50.5998
rfingers 7.12502
rthumb 12.0224 -80.2345
lclavicle -9.88954e-015 1.11319e-014
lhumerus 8.91584 9.32624 0.6133
lradius 22.241
lwrist 11.4508
lhand -13.9899 -5.62484
lfingers 7.12502
lthumb 12.1388 24.003
rfemur 15.2364 23.4862 13.3352
rtibia -5.94463
rfoot -51.3917 -40.3497
rtoes 24.5456
lfemur -6.75747 -3.36323 8.47153
ltibia -0.295937
lfoot -36.4679 28.7466
ltoes 59.2444
332
root 11.2408 18.2604 -30.9573 -21.0616 -73.9781 24.4038
lowerback 0.0180009 -0.880179 3.99644
upperback -2.75482 -1.16018 -1.10558
thorax -2.95046 -0.703116 -3.34981
lowerneck -3.0685 5.54467 1.37264
upperneck 4.35669 7.74949 -9.38792
head 2.41989 3.61608 -3.05212
rclavicle -1.31198e-014 2.38542e-015
rhumerus -14.2429 -43.4878 -2.05609
rradius 19.0416
rwrist 11.2745
rhand -14.1569 -50.5767
rfingers 7.12502
rthumb 11.9778 -80.214
lclavicle -1.31198e-014 2.38542e-015
lhumerus 8.87529 9.46951 0.498458
lradius 22.2731
lwrist 11.5429
lhand -14.5041 -5.57378
lfingers 7.12502
lthumb 11.643 24.0827
rfemur 15.1156 22.9836 14.2029
rtibia -5.54208
rfoot -51.0439 -39.9686
rtoes 24.6801
lfemur -6.66806 -3.05267 9.3127
ltibia 0.0185185
lfoot -36.3042 28.4227
ltoes 59.5115
333
root 11.2332 18.2515 -30.9024 -21.2295 -73.7226 24.6622
lowerback -0.0207411 -0.889714 3.64642
upperback -2.67876 -1.18544 -1.31321
thorax -2.8482 -0.706582 -3.36815
lowerneck -3.82599 6.35287 1.1858
upperneck 5.10681 8.88766 -8.71337
head 2.82858 4.15659 -2.71477
rclavicle 3.5334e-014 6.36111e-015
rhumerus -13.8973 -43.9139 -2.01499
rradius 18.9853
rwrist 11.7049
rhand -14.3686 -50.4556
rfingers 7.12502
rthumb 11.7737 -80.1047
lclavicle 3.5334e-014 6.36111e-015
lhumerus 8.98635 10.4884 0.691756
lradius 22.1086
lwrist 10.7363
lhand -14.9683 -5.8053
lfingers 7.12502
lthumb 11.1954 23.876
rfemur 14.8112 21.7937 13.3742
rtibia -5.39539
rfoot -49.9431 -39.6806
rtoes 23.9829
lfemur -6.96438 -2.66677 8.67809
ltibia 0.53218
lfoot -35.4115 28.7911
ltoes 59.5352
334
root 11.2242 18.2402 -30.8501 -21.2173 -73.4775 24.7769
lowerback -0.100112 -0.817608 3.23635
upperback -2.63889 -1.10287 -1.49272
thorax -2.74945 -0.655817 -3.32655
lowerneck -4.5857 7.135 0.885857
upperneck 5.96869 9.98637 -7.85029
head 3.2477 4.68091 -2.28573
rclavicle 2.71093e-014 1.59028e-014
rhumerus -13.8605 -43.6356 -1.67354
rradius 19.0681
rwrist 11.3926
rhand -14.533 -50.413
rfingers 7.12502
rthumb 11.6151 -80.0711
lclavicle 2.71093e-014 1.59028e-014
lhumerus 9.15042 10.5751 0.747786
lradius 22.0829
lwrist 10.7889
lhand -15.65 -6.04189
lfingers 7.12502
lthumb 10.5378 23.6739
rfemur 14.4322 20.518 12.5546
rtibia -5.16932
rfoot -48.3695 -39.6202
rtoes 22.3889
lfemur -7.33179 -2.07794 8.10508
ltibia 1.13104
lfoot -34.0703 29.8077
ltoes 59.1931
335
root 11.2181 18.224 -30.7885 -18.4031 -73.6138 21.8424
lowerback -0.00602129 -0.651827 3.87693
upperback -2.61803 -0.867745 -1.48852
thorax -2.77395 -0.552847 -3.6888
lowerneck -4.43413 7.57101 1.39457
upperneck 6.1477 10.5753 -8.17689
head 3.37016 4.97091 -2.45582
rclavicle 1.63997e-015 1.59028e-015
rhumerus -14.1805 -43.5399 -1.0041
rradius 19.1717
rwrist 11.333
rhand -14.5873 -50.4134
rfingers 7.12502
rthumb 11.5628 -80.0744
lclavicle 1.63997e-015 1.59028e-015
lhumerus 9.4604 9.9951 0.659663
lradius 22.143
lwrist 11.2543
lhand -16.3914 -6.13489
lfingers 7.12502
lthumb 9.82252 23.616
rfemur 14.1848 19.5287 13.0382
rtibia -4.74503
rfoot -47.4034 -39.4082
rtoes 21.5649
lfemur -7.59419 -0.750336 8.64493
ltibia 1.96292
lfoot -32.3022 30.43
ltoes 59.0892
336
root 11.2061 18.2125 -30.7327 -18.5586 -73.3084 22.0976
lowerback -0.0684201 -0.428733 3.46259
upperback -2.61593 -0.589386 -1.87714
thorax -2.70961 -0.408962 -3.86566
lowerneck -3.77476 7.73197 2.66452
upperneck 5.93123 10.7816 -9.43888
head 3.37004 5.08175 -3.12593
rclavicle -3.49861e-014 6.36111e-015
rhumerus -14.9861 -44.0649 -0.00743661
rradius 19.2112
rwrist 11.8385
rhand -14.7349 -50.3179
rfingers 7.12502
rthumb 11.4205 -79.9869
lclavicle -3.49861e-014 6.36111e-015
lhumerus 10.1233 9.42887 0.545929
lradius 22.2512
lwrist 11.6623
lhand -16.9643 -6.06206
lfingers 7.12502
lthumb 9.26981 23.7142
rfemur 13.9792 18.7779 12.3476
rtibia -4.45528
rfoot -47.036 -39.1002
rtoes 21.2621
lfemur -8.00916 0.0911733 7.90146
ltibia 2.9147
lfoot -31.2826 29.9946
ltoes 59.2878
337
root 11.1945 18.1972 -30.6711 -19.6738 -73.0558 23.1585
lowerback 0.0626838 -0.189567 2.94783
upperback -2.53816 -0.287313 -2.33451
thorax -2.67391 -0.251207 -4.05638
lowerneck -3.55877 8.1483 3.2542
upperneck 6.15643 11.3791 -10.1734
head 3.19226 5.34666 -3.09554
rclavicle 3.1731e-014 -1.31198e-014
rhumerus -15.626 -44.3168 0.861589
rradius 19.2457
rwrist 11.9819
rhand -15.0528 -50.1402
rfingers 7.12502
rthumb 11.1138 -79.8259
lclavicle 3.1731e-014 -1.31198e-014
lhumerus 10.5945 8.35444 0.171402
lradius 22.4856
lwrist 12.7082
lhand -17.4931 -5.8569
lfingers 7.12502
lthumb 8.75951 23.9413
rfemur 13.9528 17.9326 11.3674
rtibia -4.20772
rfoot -46.1688 -38.751
rtoes 19.9715
lfemur -8.08559 0.0864729 7.00705
ltibia 3.54961
lfoot -30.0448 30.62
ltoes 58.9504
338
root 11.1858 18.1846 -30.614 -17.067 -73.063 20.5039
lowerback 0.0938194 -0.0727506 3.4052
upperback -2.511 -0.122287 -2.35463
thorax -2.6511 -0.177673 -4.34068
lowerneck -3.90981 8.96354 3.06097
upperneck 6.60734 12.4817 -9.49557
head 3.40561 5.88926 -2.77402
rclavicle 5.91384e-014 4.37326e-015
rhumerus -15.6883 -43.7205 1.33433
rradius 19.3207
rwrist 11.3285
rhand -15.3728 -50.149
rfingers 7.12502
rthumb 10.8051 -79.8511
lclavicle 5.91384e-014 4.37326e-015
lhumerus 10.8534 8.09453 0.196792
lradius 22.4898
lwrist 12.8044
lhand -17.8634 -5.90003
lfingers 7.12502
lthumb 8.40212 23.9129
rfemur 13.7303 17.1228 11.7771
rtibia -3.8376
rfoot -45.6137 -38.3224
rtoes 19.2879
lfemur -8.47563 0.350417 7.60534
ltibia 4.16354
lfoot -27.7997 32.3948
ltoes 58.1214
339
root 11.1808 18.169 -30.5574 -14.3774 -72.9671 17.782
lowerback 0.165387 -0.0555396 3.7041
upperback -2.49366 -0.0893862 -2.29233
thorax -2.67175 -0.166568 -4.44629
lowerneck -4.03392 9.61759 3.14469
upperneck 6.91751 13.3785 -9.38913
head 3.57532 6.32403 -2.68449
rclavicle 3.10228e-014 -5.96354e-015
rhumerus -15.3461 -43.1727 1.52901
rradius 19.3986
rwrist 10.64
rhand -15.3689 -50.5725
rfingers 7.12502
rthumb 10.8089 -80.2744
lclavicle 3.10228e-014 -5.96354e-015
lhumerus 10.9186 8.59482 0.523262
lradius 22.3887
lwrist 11.9798
lhand -18.2086 -6.13521
lfingers 7.12502
lthumb 8.06901 23.6907
rfemur 13.4425 16.056 12.1244
rtibia -3.41991
rfoot -44.6915 -37.9376
rtoes 18.5926
lfemur -9.0263 1.24035 8.12084
ltibia 5.12266
lfoot -25.8279 33.3401
ltoes 57.6038
340
root 11.1727 18.1513 -30.4998 -13.2132 -72.7702 16.627
lowerback 0.229167 -0.00544408 3.5601
upperback -2.45446 -0.0259968 -2.40737
thorax -2.66019 -0.132213 -4.48603
lowerneck -3.58716 10.0579 3.58191
upperneck 6.47894 13.9522 -9.87451
head 3.47177 6.62609 -2.88639
rclavicle 1.56294e-014 -1.64991e-014
rhumerus -15.086 -43.1652 1.79698
rradius 19.4368
rwrist 10.3507
rhand -15.0497 -51.0781
rfingers 7.12502
rthumb 11.1168 -80.7637
lclavicle 1.56294e-014 -1.64991e-014
lhumerus 10.8372 7.83234 0.191258
lradius 22.5799
lwrist 12.5751
lhand -18.7674 -6.29643
lfingers 7.12502
lthumb 7.52966 23.5496
rfemur 13.1615 14.9116 11.8901
rtibia -3.01054
rfoot -43.3124 -37.9428
rtoes 16.1622
lfemur -9.5912 2.73682 7.91049
ltibia 6.52642
lfoot -24.0884 33.3656
ltoes 57.5399
341
root 11.1606 18.1344 -30.4379 -12.1523 -72.5725 15.5468
lowerback 0.230104 0.114253 3.42198
upperback -2.37357 0.12815 -2.55735
thorax -2.56071 -0.0501742 -4.56733
lowerneck -3.34849 10.3566 4.25348
upperneck 6.36793 14.3663 -10.5431
head 3.52523 6.83072 -3.16647
rclavicle 1.61823e-014 9.54166e-015
rhumerus -15.0492 -43.1276 2.26973
rradius 19.502
rwrist 9.89696
rhand -14.9362 -51.1529
rfingers 7.12502
rthumb 11.2262 -80.8326
lclavicle 1.61823e-014 9.54166e-015
lhumerus 11.3427 8.54585 0.552631
lradius 22.4163
lwrist 11.7445
lhand -18.8685 -6.62675
lfingers 7.12502
lthumb 7.43212 23.2227
rfemur 12.9899 14.044 11.7313
rtibia -2.62736
rfoot -42.4266 -37.9154
rtoes 13.5488
lfemur -10.0599 3.91341 7.67733
ltibia 7.80945
lfoot -22.8967 33.1814
ltoes 57.6278
